<?xml version="1.0" standalone="no"?>
<!DOCTYPE svg PUBLIC "-//W3C//DTD SVG 20010904//EN"
 "http://www.w3.org/TR/2001/REC-SVG-20010904/DTD/svg10.dtd">
<svg version="1.0" xmlns="http://www.w3.org/2000/svg"
 width="300.000000pt" height="300.000000pt" viewBox="0 0 300.000000 300.000000"
 preserveAspectRatio="xMidYMid meet">
<metadata>
Created by potrace 1.13, written by Peter Selinger 2001-2015
</metadata>
<g transform="translate(0.000000,300.000000) scale(0.100000,-0.100000)"
fill="#000000" stroke="none">
<path d="M2769 2487 c-39 -26 -69 -79 -69 -122 0 -43 30 -96 69 -122 71 -48
175 -20 213 57 50 98 -21 210 -132 210 -32 0 -58 -7 -81 -23z"/>
<path d="M2560 2035 c-42 -43 -60 -44 -83 -5 -27 45 -46 39 -40 -13 5 -40 2
-46 -44 -95 -34 -36 -62 -56 -94 -65 -56 -17 -215 -116 -279 -174 -52 -47 -64
-53 -56 -25 8 23 -35 72 -62 72 -53 0 -172 -77 -172 -111 0 -39 -34 -41 -130
-8 -72 24 -100 29 -135 23 -42 -6 -133 15 -161 38 -6 4 -14 32 -17 61 -3 28
-8 61 -12 73 -5 16 1 24 29 39 40 22 50 41 40 79 -8 32 -50 56 -98 56 -39 0
-56 -20 -56 -63 0 -14 -14 -53 -31 -87 -18 -34 -31 -73 -31 -88 1 -15 2 -51 2
-81 1 -51 3 -57 44 -95 23 -23 60 -55 82 -73 25 -21 35 -35 28 -40 -6 -4 -21
-30 -34 -56 l-24 -48 -113 7 c-122 7 -200 -7 -253 -48 -14 -11 -73 -53 -133
-94 -80 -56 -127 -98 -184 -165 -53 -62 -79 -87 -87 -79 -16 16 -51 12 -80
-11 -25 -20 -28 -20 -45 -5 -25 23 -58 20 -86 -9 -30 -29 -31 -49 -4 -109 12
-28 19 -62 17 -84 -3 -32 -7 -39 -38 -49 -19 -7 -64 -12 -99 -12 -56 -1 -69
-5 -93 -28 -64 -61 -15 -97 123 -90 65 3 93 9 102 20 13 17 32 20 222 42 157
18 210 30 243 56 14 10 30 19 37 19 7 0 26 7 41 15 18 9 40 13 57 9 19 -4 43
1 70 15 23 11 96 37 162 57 251 75 297 98 414 204 9 8 45 35 81 60 79 56 311
253 394 336 34 33 76 69 94 80 19 10 43 37 54 58 29 56 105 134 138 141 27 6
41 17 152 118 29 26 58 47 66 47 8 0 46 27 86 60 39 34 81 69 94 80 32 27 29
44 -8 36 -28 -5 -30 -4 -24 19 9 38 -25 32 -66 -10z m-1610 -945 l53 -39 -29
-11 c-16 -6 -46 -29 -67 -51 -21 -21 -52 -46 -70 -55 -17 -9 -39 -22 -47 -29
-8 -7 -26 -16 -40 -20 -14 -4 -42 -20 -62 -36 -20 -16 -43 -29 -50 -29 -7 0
-64 -23 -126 -51 -62 -28 -116 -49 -119 -46 -20 20 167 177 288 242 45 24 98
64 134 101 33 34 65 62 71 63 6 0 34 -17 64 -39z"/>
</g>
</svg>
