<?xml version="1.0" standalone="no"?>
<!DOCTYPE svg PUBLIC "-//W3C//DTD SVG 20010904//EN"
 "http://www.w3.org/TR/2001/REC-SVG-20010904/DTD/svg10.dtd">
<svg version="1.0" xmlns="http://www.w3.org/2000/svg"
 width="313.000000pt" height="161.000000pt" viewBox="0 0 313.000000 161.000000"
 preserveAspectRatio="xMidYMid meet">
<metadata>
Created by potrace 1.13, written by Peter Selinger 2001-2015
</metadata>
<g transform="translate(0.000000,161.000000) scale(0.100000,-0.100000)"
fill="#000000" stroke="none">
<path d="M1934 1380 c-38 -25 -63 -75 -45 -93 6 -6 11 -21 11 -33 0 -12 7 -34
15 -50 8 -15 13 -30 10 -32 -8 -9 -223 32 -335 64 -47 13 -110 29 -140 35 -59
11 -133 34 -163 51 -23 12 -32 4 -22 -19 4 -10 7 -33 6 -50 -2 -18 2 -33 8
-33 6 0 11 6 12 13 0 6 4 3 9 -8 8 -18 9 -18 9 -2 1 10 5 16 10 12 5 -3 12 -1
16 5 12 20 48 9 124 -40 42 -27 99 -59 126 -71 28 -12 63 -32 78 -45 16 -13
35 -24 42 -24 19 0 75 -49 75 -65 0 -7 -12 -27 -26 -44 -33 -40 -61 -40 -157
-1 -41 16 -105 37 -142 45 -37 9 -90 27 -116 41 -27 13 -62 24 -78 24 -16 0
-31 5 -33 12 -3 8 -65 14 -194 20 l-189 10 -37 36 c-35 33 -38 34 -38 14 0
-29 -17 -28 -105 9 -41 17 -79 28 -85 24 -14 -9 -12 -41 5 -75 17 -33 35 -44
84 -54 19 -3 59 -23 88 -43 l54 -37 34 18 c43 23 90 17 194 -26 50 -20 96 -32
136 -33 33 -2 66 -3 73 -4 15 -1 272 -249 272 -262 0 -4 -23 -20 -50 -36 -50
-28 -50 -28 -44 -68 5 -39 5 -41 -38 -62 -84 -41 -126 -79 -138 -125 -7 -23
-9 -60 -6 -82 7 -39 5 -41 -67 -115 -81 -83 -93 -103 -71 -122 26 -21 97 -5
160 38 79 54 98 76 90 106 -4 16 0 29 9 37 8 7 18 31 22 52 5 34 11 43 42 55
19 8 49 16 67 17 17 2 59 19 92 40 33 20 65 36 72 36 7 0 46 16 86 35 51 25
85 50 111 81 21 25 58 57 83 71 55 32 188 133 214 162 14 16 31 21 65 21 99 0
225 21 247 41 18 17 25 18 50 8 16 -6 92 -15 169 -20 120 -8 147 -13 189 -35
34 -18 47 -21 43 -11 -4 12 3 13 40 9 33 -3 44 -2 39 7 -4 6 -2 11 3 11 15 0
7 40 -10 51 -8 5 -51 9 -97 9 -70 0 -96 5 -170 34 -48 19 -103 37 -122 40 -19
4 -44 11 -55 16 -11 4 -60 20 -110 35 -49 15 -117 39 -150 55 -33 15 -83 31
-112 35 -69 9 -78 21 -59 80 9 25 16 72 16 104 0 55 -2 61 -35 90 -29 25 -44
31 -83 31 -30 0 -58 -8 -78 -20z"/>
<path d="M225 1335 c-77 -27 -126 -110 -111 -189 16 -83 83 -136 172 -136 65
0 111 29 142 90 70 135 -61 286 -203 235z"/>
</g>
</svg>
