<?xml version="1.0" standalone="no"?>
<!DOCTYPE svg PUBLIC "-//W3C//DTD SVG 20010904//EN"
 "http://www.w3.org/TR/2001/REC-SVG-20010904/DTD/svg10.dtd">
<svg version="1.0" xmlns="http://www.w3.org/2000/svg"
 width="225.000000pt" height="225.000000pt" viewBox="0 0 225.000000 225.000000"
 preserveAspectRatio="xMidYMid meet">
<metadata>
Created by potrace 1.13, written by Peter Selinger 2001-2015
</metadata>
<g transform="translate(0.000000,225.000000) scale(0.100000,-0.100000)"
fill="#000000" stroke="none">
<path d="M1949 1971 c-9 -50 -14 -58 -30 -54 -16 5 -19 0 -19 -33 0 -35 -1
-36 -14 -18 -24 32 -28 9 -8 -50 13 -39 15 -56 7 -56 -6 0 -15 3 -19 7 -11 11
-44 14 -158 16 -101 2 -108 0 -134 -23 -24 -22 -26 -22 -20 -5 5 11 13 34 18
50 5 17 16 44 23 60 8 18 11 48 8 75 -7 63 -37 80 -118 69 -35 -5 -65 -15 -75
-26 -29 -31 -48 -112 -43 -181 6 -63 -6 -110 -35 -144 -11 -14 -30 -18 -75
-18 -56 0 -64 -3 -137 -55 -43 -30 -90 -57 -105 -61 -33 -8 -100 6 -275 59
-86 26 -156 41 -194 41 -55 1 -60 -1 -87 -34 -55 -66 -59 -137 -9 -190 24 -25
36 -30 77 -30 76 0 123 47 123 125 0 49 20 46 119 -15 134 -83 204 -103 349
-101 l102 2 0 -59 c0 -49 -5 -66 -31 -105 -17 -26 -28 -51 -24 -57 3 -5 -1
-17 -9 -26 -9 -8 -16 -22 -16 -30 0 -8 -9 -14 -19 -14 -11 0 -23 -9 -26 -20
-3 -11 -17 -23 -31 -26 -13 -3 -24 -10 -24 -15 0 -5 -23 -24 -50 -42 -28 -19
-74 -56 -103 -81 -29 -26 -94 -75 -145 -108 -85 -55 -165 -129 -318 -295 -22
-23 -46 -44 -54 -45 -8 -2 -22 -10 -30 -19 -20 -21 -79 -46 -110 -47 -40 -2
-70 -11 -70 -23 0 -6 29 -41 64 -77 l65 -67 52 60 c101 114 156 162 272 239
69 45 134 98 159 127 64 75 119 98 243 100 55 2 113 -1 128 -5 22 -7 33 -4 53
14 28 27 27 30 25 -75 -2 -90 -17 -182 -32 -191 -6 -3 -19 2 -30 12 -17 15
-19 26 -14 69 4 27 9 58 11 67 4 12 -3 22 -20 30 -39 17 -102 -4 -121 -42 -9
-18 -26 -32 -43 -36 -78 -18 -148 -86 -125 -122 9 -14 24 -16 82 -14 40 2 77
-1 84 -6 7 -6 25 -12 41 -14 33 -3 36 -8 71 -103 35 -94 38 -98 70 -110 25 -9
31 -6 72 40 25 27 63 77 84 110 21 33 44 67 51 74 54 61 88 119 98 168 7 29
18 66 26 81 8 15 14 40 14 55 0 15 8 37 18 48 32 34 44 90 30 148 -10 44 -9
53 5 69 9 10 17 26 17 35 0 9 5 17 10 17 6 0 27 16 46 36 33 32 35 37 20 53
-14 15 -13 21 18 72 31 52 46 90 51 134 2 11 -10 46 -26 77 -37 73 -37 96 -1
104 15 3 51 15 80 25 29 10 66 19 82 19 53 0 97 66 120 180 15 77 24 90 59 90
20 0 23 2 11 10 -8 5 -25 10 -37 10 -29 0 -29 4 3 46 37 48 21 55 -24 11 -21
-20 -41 -37 -44 -37 -3 0 -3 29 0 65 6 83 -13 88 -29 6z"/>
</g>
</svg>
