<?xml version="1.0" standalone="no"?>
<!DOCTYPE svg PUBLIC "-//W3C//DTD SVG 20010904//EN"
 "http://www.w3.org/TR/2001/REC-SVG-20010904/DTD/svg10.dtd">
<svg version="1.0" xmlns="http://www.w3.org/2000/svg"
 width="232.000000pt" height="217.000000pt" viewBox="0 0 232.000000 217.000000"
 preserveAspectRatio="xMidYMid meet">
<metadata>
Created by potrace 1.13, written by Peter Selinger 2001-2015
</metadata>
<g transform="translate(0.000000,217.000000) scale(0.100000,-0.100000)"
fill="#000000" stroke="none">
<path d="M1374 2154 c-63 -31 -82 -118 -44 -203 27 -60 25 -91 -16 -206 -19
-55 -38 -116 -43 -135 -13 -60 -43 -134 -65 -158 -19 -22 -20 -22 -31 -3 -5
10 -30 35 -55 56 -39 32 -49 36 -81 31 -86 -14 -117 -46 -104 -108 6 -25 3
-30 -22 -39 -33 -11 -34 -14 -36 -112 -2 -75 -21 -103 -61 -91 -18 6 -19 5 -8
-8 10 -13 9 -16 -8 -21 -25 -7 -26 -23 0 -37 24 -13 19 -29 -33 -94 -21 -28
-52 -75 -67 -107 -33 -64 -107 -126 -175 -146 l-40 -11 40 -1 c38 -2 39 -2 20
-17 -19 -15 -18 -16 23 -11 39 5 42 3 37 -14 -9 -27 6 -23 31 9 20 24 25 25
43 15 25 -16 51 -17 51 -3 0 6 -4 10 -10 10 -17 0 -11 78 10 112 11 19 40 48
65 66 25 18 60 54 76 81 17 27 40 54 53 60 19 11 26 9 54 -16 18 -15 32 -35
32 -43 0 -9 4 -20 9 -25 5 -6 12 -27 15 -47 6 -31 3 -41 -16 -60 -12 -12 -30
-45 -40 -72 -15 -47 -21 -53 -85 -85 -41 -21 -91 -58 -128 -95 -65 -66 -64
-65 -213 -144 -98 -52 -241 -162 -262 -202 -6 -11 -16 -17 -22 -14 -6 4 -17
-1 -24 -11 -12 -16 -14 -17 -20 -2 -9 23 -26 10 -19 -14 4 -13 2 -19 -9 -19
-9 0 -16 -6 -16 -14 0 -16 -5 -18 -90 -36 -99 -22 -110 -38 -62 -90 29 -33 48
-36 140 -23 46 7 60 15 110 64 55 54 107 89 133 89 7 0 44 22 83 49 39 26 96
61 126 76 30 15 80 44 110 65 30 20 71 42 90 50 19 7 92 42 161 76 l126 63 64
-25 c35 -14 105 -42 154 -64 50 -22 119 -46 155 -55 74 -19 108 -38 200 -111
36 -28 76 -57 90 -64 14 -7 43 -28 66 -47 23 -18 48 -33 57 -33 20 0 112 -102
138 -152 13 -25 24 -36 32 -31 149 96 231 158 250 189 5 8 0 17 -12 23 -14 8
-31 6 -66 -10 -36 -16 -58 -19 -91 -14 -46 7 -52 13 -32 33 9 9 7 12 -9 12
-12 0 -24 -4 -27 -9 -9 -14 -65 10 -68 29 -5 29 -334 300 -365 300 -4 0 -39
23 -78 50 -38 27 -100 66 -137 87 -39 22 -68 45 -68 54 0 8 -11 25 -24 36 -31
27 -42 87 -22 118 12 18 16 50 16 114 0 49 5 93 10 96 22 14 11 71 -20 100
-23 22 -30 37 -30 68 0 21 5 47 10 57 6 11 19 61 30 112 11 51 31 136 44 188
14 52 31 136 37 187 l12 91 33 7 c18 3 47 19 64 36 25 26 30 38 30 80 0 60
-21 96 -67 115 -41 18 -70 17 -109 -2z"/>
</g>
</svg>
