<?xml version="1.0" standalone="no"?>
<!DOCTYPE svg PUBLIC "-//W3C//DTD SVG 20010904//EN"
 "http://www.w3.org/TR/2001/REC-SVG-20010904/DTD/svg10.dtd">
<svg version="1.0" xmlns="http://www.w3.org/2000/svg"
 width="209.000000pt" height="241.000000pt" viewBox="0 0 209.000000 241.000000"
 preserveAspectRatio="xMidYMid meet">
<metadata>
Created by potrace 1.13, written by Peter Selinger 2001-2015
</metadata>
<g transform="translate(0.000000,241.000000) scale(0.100000,-0.100000)"
fill="#000000" stroke="none">
<path d="M1652 2398 c-38 -48 -42 -75 -42 -267 l0 -190 -32 10 c-49 14 -179
11 -233 -5 -50 -15 -95 -50 -95 -73 0 -8 23 -43 50 -80 l51 -65 -6 -87 c-5
-60 -3 -82 4 -71 8 12 13 11 34 -8 13 -12 26 -19 30 -16 4 4 14 1 22 -6 13
-11 21 -10 46 9 29 22 32 22 49 6 18 -17 20 -16 29 6 5 13 13 51 18 84 6 33
14 69 18 79 6 13 5 17 -3 12 -20 -12 -24 15 -5 34 19 17 20 16 22 -144 2 -146
4 -163 22 -181 17 -17 21 -18 29 -5 5 8 104 150 219 315 l210 300 1 178 0 177
-30 0 -30 0 0 -156 0 -155 -107 -157 -108 -157 -3 70 -3 70 -72 0 -72 0 -3
193 c-2 190 -2 193 23 236 14 23 25 46 25 49 0 12 -47 7 -58 -5z"/>
<path d="M453 2065 c-42 -18 -93 -89 -93 -129 0 -18 8 -48 19 -68 10 -20 21
-55 25 -78 8 -51 142 -241 197 -279 45 -31 89 -108 119 -209 12 -41 42 -113
66 -160 35 -67 44 -94 39 -118 -3 -17 0 -45 6 -62 10 -29 8 -35 -20 -67 -22
-26 -31 -46 -31 -71 0 -62 -22 -127 -66 -194 -30 -45 -45 -80 -49 -115 -12
-88 -11 -87 -48 -68 -22 12 -63 18 -133 20 -133 5 -157 12 -168 49 -4 16 -15
44 -22 62 l-14 32 -38 -19 c-21 -11 -45 -27 -52 -36 -8 -9 -39 -30 -71 -45
-52 -27 -109 -79 -109 -100 0 -23 35 -28 70 -10 19 10 55 23 79 30 39 10 45 9
65 -9 15 -14 36 -21 62 -21 46 0 131 -23 157 -42 17 -13 15 -19 -29 -97 -46
-81 -107 -239 -97 -253 10 -18 55 -6 78 20 47 52 60 64 98 88 21 13 48 24 60
24 13 0 28 5 34 11 14 14 214 17 339 5 99 -10 146 3 172 44 13 22 52 267 52
333 0 21 -9 55 -20 77 -12 24 -20 59 -20 92 0 29 -5 73 -11 98 -14 63 -6 84
41 103 39 15 40 16 41 69 1 29 1 59 0 66 -3 17 30 9 142 -36 108 -42 146 -78
148 -137 l1 -40 12 40 13 40 13 -25 14 -25 5 23 6 24 25 -20 c14 -10 36 -23
49 -27 l25 -8 -27 32 c-30 36 -34 51 -13 51 26 0 25 15 0 16 -42 3 -188 84
-265 146 -41 34 -93 69 -115 79 -23 9 -50 29 -60 44 -11 14 -41 54 -67 88 -27
34 -55 74 -63 90 -13 25 -13 27 5 27 31 0 40 22 34 83 -3 31 -9 57 -14 57 -4
0 -20 11 -35 25 -20 19 -38 25 -71 25 -83 0 -142 -44 -129 -96 6 -22 -6 -16
-96 45 -63 42 -111 82 -123 103 -10 18 -45 59 -77 91 -32 32 -58 62 -58 67 0
6 16 10 35 10 80 0 132 43 142 119 7 52 -19 96 -69 116 -47 18 -73 18 -115 0z
m469 -1716 c16 -12 28 -23 26 -24 -2 -2 -84 -22 -183 -45 l-180 -41 -28 32
c-16 17 -27 32 -25 34 2 2 27 -3 56 -11 67 -17 122 -7 212 40 79 41 84 42 122
15z"/>
</g>
</svg>
